<mxfile host="app.diagrams.net" modified="2024-05-23T11:29:36.786Z" agent="Mozilla/5.0 (Macintosh; Intel Mac OS X 10_15_7) AppleWebKit/537.36 (KHTML, like Gecko) Chrome/124.0.0.0 Safari/537.36" etag="1EAFUyMv47X34zqe2it9" version="24.4.4" type="device">
  <diagram name="Страница — 1" id="4lDqXTXiLoCAxxBmREM6">
    <mxGraphModel dx="1137" dy="752" grid="1" gridSize="10" guides="1" tooltips="1" connect="1" arrows="1" fold="1" page="1" pageScale="1" pageWidth="827" pageHeight="1169" math="0" shadow="0">
      <root>
        <mxCell id="0" />
        <mxCell id="1" parent="0" />
        <mxCell id="HQ0o5W4oX0yQz7lulbtH-9" style="edgeStyle=orthogonalEdgeStyle;rounded=0;orthogonalLoop=1;jettySize=auto;html=1;entryX=0;entryY=0.5;entryDx=0;entryDy=0;" edge="1" parent="1" source="HQ0o5W4oX0yQz7lulbtH-1" target="HQ0o5W4oX0yQz7lulbtH-4">
          <mxGeometry relative="1" as="geometry" />
        </mxCell>
        <mxCell id="HQ0o5W4oX0yQz7lulbtH-14" style="edgeStyle=orthogonalEdgeStyle;rounded=0;orthogonalLoop=1;jettySize=auto;html=1;entryX=0.5;entryY=1;entryDx=0;entryDy=0;" edge="1" parent="1" target="HQ0o5W4oX0yQz7lulbtH-2">
          <mxGeometry relative="1" as="geometry">
            <mxPoint x="355" y="230" as="sourcePoint" />
          </mxGeometry>
        </mxCell>
        <mxCell id="HQ0o5W4oX0yQz7lulbtH-16" style="edgeStyle=orthogonalEdgeStyle;rounded=0;orthogonalLoop=1;jettySize=auto;html=1;entryX=1;entryY=0.5;entryDx=0;entryDy=0;" edge="1" parent="1" source="HQ0o5W4oX0yQz7lulbtH-1" target="HQ0o5W4oX0yQz7lulbtH-7">
          <mxGeometry relative="1" as="geometry" />
        </mxCell>
        <mxCell id="HQ0o5W4oX0yQz7lulbtH-21" style="edgeStyle=orthogonalEdgeStyle;rounded=0;orthogonalLoop=1;jettySize=auto;html=1;entryX=1;entryY=0.5;entryDx=0;entryDy=0;" edge="1" parent="1" target="HQ0o5W4oX0yQz7lulbtH-6">
          <mxGeometry relative="1" as="geometry">
            <mxPoint x="330" y="330" as="sourcePoint" />
            <Array as="points">
              <mxPoint x="330" y="345" />
            </Array>
          </mxGeometry>
        </mxCell>
        <mxCell id="HQ0o5W4oX0yQz7lulbtH-23" style="edgeStyle=orthogonalEdgeStyle;rounded=0;orthogonalLoop=1;jettySize=auto;html=1;entryX=0;entryY=0.5;entryDx=0;entryDy=0;" edge="1" parent="1" target="HQ0o5W4oX0yQz7lulbtH-5">
          <mxGeometry relative="1" as="geometry">
            <mxPoint x="390" y="330" as="sourcePoint" />
            <Array as="points">
              <mxPoint x="390" y="345" />
            </Array>
          </mxGeometry>
        </mxCell>
        <mxCell id="HQ0o5W4oX0yQz7lulbtH-31" style="edgeStyle=orthogonalEdgeStyle;rounded=0;orthogonalLoop=1;jettySize=auto;html=1;" edge="1" parent="1" target="HQ0o5W4oX0yQz7lulbtH-18">
          <mxGeometry relative="1" as="geometry">
            <mxPoint x="360" y="330" as="sourcePoint" />
          </mxGeometry>
        </mxCell>
        <mxCell id="HQ0o5W4oX0yQz7lulbtH-1" value="Пользователь" style="shape=umlActor;html=1;verticalLabelPosition=bottom;verticalAlign=top;align=center;" vertex="1" parent="1">
          <mxGeometry x="340" y="240" width="30" height="60" as="geometry" />
        </mxCell>
        <mxCell id="HQ0o5W4oX0yQz7lulbtH-2" value="Управлять читателями" style="ellipse;whiteSpace=wrap;html=1;" vertex="1" parent="1">
          <mxGeometry x="285" y="130" width="140" height="70" as="geometry" />
        </mxCell>
        <mxCell id="HQ0o5W4oX0yQz7lulbtH-4" value="Управлять книгами" style="ellipse;whiteSpace=wrap;html=1;" vertex="1" parent="1">
          <mxGeometry x="440" y="210" width="140" height="70" as="geometry" />
        </mxCell>
        <mxCell id="HQ0o5W4oX0yQz7lulbtH-5" value="Управлять заимствованиями" style="ellipse;whiteSpace=wrap;html=1;" vertex="1" parent="1">
          <mxGeometry x="440" y="310" width="140" height="70" as="geometry" />
        </mxCell>
        <mxCell id="HQ0o5W4oX0yQz7lulbtH-6" value="Закрыть приложение" style="ellipse;whiteSpace=wrap;html=1;" vertex="1" parent="1">
          <mxGeometry x="140" y="310" width="140" height="70" as="geometry" />
        </mxCell>
        <mxCell id="HQ0o5W4oX0yQz7lulbtH-7" value="Открыть приложение" style="ellipse;whiteSpace=wrap;html=1;" vertex="1" parent="1">
          <mxGeometry x="140" y="210" width="140" height="70" as="geometry" />
        </mxCell>
        <mxCell id="HQ0o5W4oX0yQz7lulbtH-18" value="Открыть интерактивную документацию&amp;nbsp;" style="ellipse;whiteSpace=wrap;html=1;" vertex="1" parent="1">
          <mxGeometry x="285" y="370" width="140" height="70" as="geometry" />
        </mxCell>
        <mxCell id="HQ0o5W4oX0yQz7lulbtH-32" value="" style="ellipse;html=1;shape=startState;fillColor=#000000;strokeColor=#ff0000;" vertex="1" parent="1">
          <mxGeometry x="740" y="120" width="30" height="30" as="geometry" />
        </mxCell>
        <mxCell id="HQ0o5W4oX0yQz7lulbtH-33" value="" style="edgeStyle=orthogonalEdgeStyle;html=1;verticalAlign=bottom;endArrow=open;endSize=8;strokeColor=#ff0000;rounded=0;entryX=0.5;entryY=0;entryDx=0;entryDy=0;" edge="1" source="HQ0o5W4oX0yQz7lulbtH-32" parent="1" target="HQ0o5W4oX0yQz7lulbtH-36">
          <mxGeometry relative="1" as="geometry">
            <mxPoint x="810" y="180" as="targetPoint" />
            <Array as="points">
              <mxPoint x="880" y="135" />
            </Array>
          </mxGeometry>
        </mxCell>
        <mxCell id="HQ0o5W4oX0yQz7lulbtH-35" value="Вход в приложение" style="text;html=1;align=center;verticalAlign=middle;whiteSpace=wrap;rounded=0;" vertex="1" parent="1">
          <mxGeometry x="725" y="160" width="60" height="30" as="geometry" />
        </mxCell>
        <mxCell id="HQ0o5W4oX0yQz7lulbtH-36" value="Открытие интерактивной документации" style="html=1;align=center;verticalAlign=middle;rounded=1;absoluteArcSize=1;arcSize=10;dashed=0;whiteSpace=wrap;" vertex="1" parent="1">
          <mxGeometry x="810" y="190" width="140" height="70" as="geometry" />
        </mxCell>
      </root>
    </mxGraphModel>
  </diagram>
</mxfile>
